<?xml version="1.0" standalone="no"?>
<!DOCTYPE svg PUBLIC "-//W3C//DTD SVG 20010904//EN"
        "http://www.w3.org/TR/2001/REC-SVG-20010904/DTD/svg10.dtd">
<svg version="1.0" xmlns="http://www.w3.org/2000/svg"
     width="360.000000pt" height="360.000000pt" viewBox="0 0 360.000000 360.000000"
     preserveAspectRatio="xMidYMid meet">

    <g transform="translate(0.000000,360.000000) scale(0.100000,-0.100000)"
       fill="#000000" stroke="none">
        <path d="M1720 3380 l0 -70 -75 0 -76 0 3 -67 3 -68 70 -1 70 -1 3 -133 3
-132 -70 -152 c-38 -83 -88 -191 -111 -241 -23 -49 -65 -139 -92 -200 -28 -60
-74 -157 -102 -215 l-51 -105 -5 -223 -5 -224 -325 -107 c-179 -59 -394 -129
-478 -157 -84 -27 -162 -57 -173 -67 -18 -17 -19 -36 -19 -511 0 -488 0 -493
21 -512 21 -18 59 -19 1474 -19 1415 0 1453 1 1474 19 21 19 21 24 21 508 0
303 -4 496 -10 508 -8 16 -356 135 -925 318 l-60 19 -5 224 -5 224 -213 458
-213 457 3 132 3 131 73 -2 72 -2 0 70 0 71 -75 0 -75 0 0 70 0 70 -65 0 -65
0 0 -70z m80 -680 c0 -5 51 -119 114 -254 63 -135 111 -246 107 -246 -3 0 -53
36 -110 80 -59 46 -113 80 -126 80 -13 0 -66 -34 -126 -80 -56 -44 -106 -80
-110 -80 -3 0 12 39 35 88 23 48 78 164 121 259 68 147 95 191 95 153z m170
-638 l175 -138 3 -807 2 -807 -74 0 -74 0 -4 183 c-5 199 -10 223 -74 324 -57
91 -102 133 -139 133 -28 0 -41 -9 -80 -52 -56 -64 -111 -174 -125 -247 -6
-29 -10 -118 -10 -197 l0 -144 -75 0 -75 0 0 804 0 804 178 141 c97 77 182
140 187 141 6 0 89 -62 185 -138z m-680 -1207 l0 -545 -75 0 -75 0 0 89 c0 48
-4 112 -10 140 -19 103 -100 228 -194 300 -78 60 -101 56 -199 -38 -65 -62
-103 -118 -132 -196 -21 -56 -25 -83 -25 -180 l0 -115 -75 0 -75 0 0 408 0
407 108 34 c59 19 246 81 417 137 171 57 316 103 323 104 9 0 12 -115 12 -545z
m1298 451 c158 -52 348 -115 422 -139 l135 -43 3 -407 2 -407 -75 0 -75 0 -1
93 c-1 176 -49 288 -178 408 -89 84 -113 88 -181 32 -145 -119 -210 -255 -210
-440 l0 -93 -75 0 -75 0 0 545 c0 381 3 545 11 545 6 0 139 -43 297 -94z
m-761 -593 c27 -56 28 -65 31 -230 l3 -173 -76 0 -77 0 4 173 c3 158 5 176 27
217 27 52 40 70 51 70 5 0 21 -26 37 -57z m-922 -35 c79 -92 90 -121 94 -250
l3 -118 -147 0 -147 0 4 108 c3 81 9 118 25 154 20 45 107 148 124 148 4 0 24
-19 44 -42z m1923 -93 c23 -43 27 -65 30 -162 l4 -113 -147 0 -147 0 4 113 c4
130 21 175 96 253 l44 46 45 -43 c24 -24 56 -66 71 -94z"/>
        <path d="M1700 1934 c-138 -60 -167 -239 -56 -342 190 -175 468 83 304 283
-57 69 -166 95 -248 59z m135 -139 c48 -47 17 -125 -51 -125 -38 0 -74 38 -74
77 0 32 42 73 75 73 14 0 37 -11 50 -25z"/>
    </g>
</svg>
